<svg width="58" height="58" viewBox="0 0 58 58" fill="none" xmlns="http://www.w3.org/2000/svg">
<rect width="58" height="58" fill="#F2F5FF"/>
<path d="M45.5518 42.0049C45.5518 42.6321 45.3027 43.2335 44.8592 43.6769C44.4158 44.1204 43.8143 44.3695 43.1872 44.3695H14.8128C14.1857 44.3695 13.5842 44.1204 13.1408 43.6769C12.6974 43.2335 12.4482 42.6321 12.4482 42.0049V23.0886C12.4482 22.4615 12.6974 21.8601 13.1408 21.4167C13.5842 20.9732 14.1857 20.7241 14.8128 20.7241H43.1872C43.8143 20.7241 44.4158 20.9732 44.8592 21.4167C45.3027 21.8601 45.5518 22.4615 45.5518 23.0886V42.0049Z" stroke="#0061FF" stroke-width="2.5" stroke-linecap="round" stroke-linejoin="round"/>
<path d="M19.542 20.7241V44.3695" stroke="#0061FF" stroke-width="2.5" stroke-linecap="round" stroke-linejoin="round"/>
<path d="M38.458 20.7241V44.3695" stroke="#0061FF" stroke-width="2.5" stroke-linecap="round" stroke-linejoin="round"/>
<path d="M24.271 20.7241V18.3596C24.271 17.1053 24.7692 15.9025 25.6561 15.0156C26.543 14.1287 27.7458 13.6305 29.0001 13.6305C30.2543 13.6305 31.4572 14.1287 32.344 15.0156C33.2309 15.9025 33.7291 17.1053 33.7291 18.3596V20.7241" stroke="#0061FF" stroke-width="2.5" stroke-linecap="round" stroke-linejoin="round"/>
</svg>
