<svg width="117" height="24" viewBox="0 0 117 24" fill="none" xmlns="http://www.w3.org/2000/svg">
<path d="M7.38859 22.8399H3.01617V11.8235H0.0375977V8.23683H3.01606V5.68463C3.01606 2.66027 4.33343 0.491211 8.69402 0.491211C9.61629 0.491211 11.0642 0.67909 11.0642 0.67909V4.00955H9.54342C7.99385 4.00955 7.38883 4.48593 7.38883 5.80296V8.23683H11.0062L10.6841 11.8235H7.38871L7.38859 22.8399ZM17.4212 7.95021C17.3575 7.95021 17.292 7.95255 17.2271 7.95419C13.1727 7.95419 11.3178 11.0365 11.3178 15.4119C11.3178 20.9237 13.7239 23.1297 17.2588 23.1297C19.2812 23.1297 20.6099 22.2694 21.4176 20.6638V22.8415H25.5764V8.23836H21.4176V10.4841C20.7581 9.03925 19.3922 7.96733 17.4212 7.95021ZM18.4787 11.4009C20.1815 11.4009 21.2036 12.6013 21.2036 14.6433L21.2075 16.7288C21.2075 18.1051 20.3634 19.7152 18.4787 19.7152C15.5812 19.7152 15.6586 16.5531 15.6586 15.5C15.6586 11.9574 17.2024 11.4009 18.4787 11.4009ZM27.2559 15.5407C27.2559 13.7661 27.1719 7.9597 34.6568 7.9597C37.6614 7.9597 38.916 8.92525 38.916 8.92525L37.9076 12.0862C37.9076 12.0862 36.6546 11.3889 35.022 11.3889C32.9308 11.3889 31.5965 12.6141 31.5965 14.7698L31.5988 16.3155C31.5988 18.3869 32.8863 19.7696 35.0263 19.7696C36.5136 19.7696 37.8845 19.0657 37.8845 19.0657L38.8903 22.1607C38.8903 22.1607 37.7432 23.1323 34.6778 23.1323C27.551 23.1323 27.256 17.9228 27.256 15.5407H27.2559ZM63.3005 7.95419C67.355 7.95419 69.2392 11.0365 69.2392 15.4119C69.2392 20.9237 66.8329 23.1297 63.2981 23.1297C61.2756 23.1297 59.7806 22.2695 58.973 20.6638V22.8415L54.8665 22.8398V0.935225L59.2265 0.550905V10.2863C59.8558 8.58304 61.9238 7.95419 63.3006 7.95419H63.3005ZM62.0782 11.4009C60.3753 11.4009 59.2265 12.6013 59.2265 14.6433L59.2225 16.7288C59.2199 18.1051 60.018 19.7152 62.0782 19.7152C64.9756 19.7152 64.8982 16.5531 64.8982 15.5C64.8982 11.9574 63.3546 11.4009 62.0782 11.4009ZM46.4809 7.96627C41.8823 7.96627 39.4546 10.5003 39.4546 15.0035V15.8402C39.4546 21.685 42.8639 23.1898 46.9285 23.1898C50.8792 23.1898 52.6675 22.0729 52.6675 22.0729L51.8516 19.0988C51.8516 19.0988 49.7481 20.0033 47.4512 20.0033C45.0701 20.0033 44.0461 19.39 43.7836 17.0772H53.0161V14.6912C53.0161 9.80636 50.2914 7.96616 46.4808 7.96616L46.4809 7.96627ZM46.5917 10.9444C48.1835 10.9444 49.215 11.931 49.1584 14.2189H43.7916C43.8847 11.8109 44.997 10.9445 46.5917 10.9445V10.9444ZM77.9329 7.94622C73.2105 7.94622 70.7244 10.6359 70.7244 15.4559C70.7244 22.0692 75.0099 23.1337 77.9407 23.1337C82.2314 23.1337 85.0859 20.7991 85.0859 15.5159C85.0859 10.0171 81.8763 7.94622 77.9329 7.94622V7.94622ZM77.8735 11.4128C79.9499 11.4128 80.7728 12.9835 80.7728 14.7714V16.3086C80.7728 18.4745 79.6214 19.7273 77.8656 19.7273C76.2234 19.7273 75.0693 18.5554 75.0693 16.3086V14.7714C75.0693 12.3752 76.4426 11.4128 77.8735 11.4128V11.4128ZM93.7718 7.94622C89.0494 7.94622 86.5633 10.6359 86.5633 15.4559C86.5633 22.0692 90.8488 23.1337 93.7797 23.1337C98.0702 23.1337 100.925 20.7991 100.925 15.5159C100.925 10.0171 97.7151 7.94622 93.7718 7.94622V7.94622ZM93.7124 11.4128C95.7889 11.4128 96.6116 12.9835 96.6116 14.7714V16.3086C96.6116 18.4745 95.4603 19.7273 93.7045 19.7273C92.0623 19.7273 90.9082 18.5554 90.9082 16.3086V14.7714C90.9082 12.3752 92.2815 11.4128 93.7124 11.4128V11.4128ZM102.572 22.8399V0.935225L106.945 0.550905V15.2328L111.283 8.23683H115.901L111.376 15.4826L116.075 22.8399H111.444L106.945 15.6961V22.8399H102.572Z" fill="#AEAEC4"/>
</svg>
