<svg width="106" height="35" viewBox="0 0 106 35" fill="none" xmlns="http://www.w3.org/2000/svg">
<path d="M12.973 0H13.9097C17.1617 0.0714504 20.3606 1.39328 22.6582 3.73328C21.8099 4.60855 20.9439 5.44809 20.1132 6.32336C18.823 5.14443 17.2677 4.23343 15.5711 3.91191C13.0614 3.37603 10.3573 3.85832 8.25414 5.30519C5.95656 6.82351 4.40127 9.39572 4.06547 12.1466C3.69432 14.8617 4.45429 17.7197 6.20399 19.8275C7.88299 21.8817 10.4457 23.1678 13.0967 23.2571C15.5711 23.4 18.1514 22.6319 19.9541 20.8814C21.368 19.6489 22.022 17.7733 22.234 15.9513C19.3002 15.9513 16.3664 15.9692 13.4325 15.9513V12.2716H25.7865C26.4227 16.2192 25.5037 20.667 22.5345 23.4893C20.555 25.4899 17.8156 26.6689 15.0232 26.9011C12.3191 27.169 9.52664 26.651 7.12302 25.3292C4.24221 23.7751 1.94462 21.1493 0.813505 18.0591C-0.246918 15.2189 -0.264591 12.0037 0.725136 9.14565C1.6265 6.53771 3.35852 4.23343 5.58541 2.6258C7.72393 1.03603 10.322 0.160763 12.973 0Z" fill="#AEAEC4"/>
<path d="M83.8452 0.928833H87.6274V26.4366C86.3725 26.4366 85.1 26.4544 83.8452 26.4187C83.8629 17.934 83.8452 9.43141 83.8452 0.928833V0.928833Z" fill="#AEAEC4"/>
<path d="M34.1991 9.77088C36.532 9.32432 39.0594 9.82447 40.9858 11.2356C42.7355 12.486 43.955 14.4508 44.3262 16.5943C44.8033 19.0772 44.2024 21.7923 42.6118 23.7572C40.8975 25.9543 38.0873 27.1332 35.3479 26.9546C32.8382 26.8117 30.3993 25.5434 28.9147 23.4714C27.2357 21.185 26.8292 18.0412 27.7482 15.3618C28.6672 12.486 31.2653 10.2889 34.1991 9.77088V9.77088ZM34.7293 13.1647C33.7749 13.4148 32.8913 13.9686 32.255 14.7545C30.5406 16.8266 30.6467 20.2026 32.5378 22.1317C33.6159 23.2392 35.2419 23.7572 36.7441 23.4535C38.1403 23.2034 39.3598 22.2567 40.0314 21.0064C41.1979 18.8807 40.8621 15.9513 39.0771 14.2901C37.9283 13.2183 36.2493 12.7718 34.7293 13.1647Z" fill="#AEAEC4"/>
<path d="M52.9328 9.77073C55.6015 9.25272 58.5177 10.0029 60.5148 11.8964C63.7668 14.8437 64.1203 20.3633 61.3455 23.7572C59.6665 25.9007 56.9447 27.0796 54.2583 26.9546C51.6956 26.8831 49.1683 25.597 47.6484 23.4714C45.934 21.1314 45.5629 17.9161 46.5349 15.1831C47.507 12.3965 50.052 10.2709 52.9328 9.77073V9.77073ZM53.463 13.1646C52.5086 13.4147 51.625 13.9684 50.9887 14.7365C49.292 16.7729 49.3627 20.0953 51.1831 22.0424C52.2612 23.2034 53.9402 23.775 55.4955 23.4535C56.8741 23.1856 58.1112 22.2567 58.7828 21.0063C59.9316 18.8628 59.5958 15.9333 57.7931 14.2721C56.6443 13.2004 54.9653 12.7717 53.463 13.1646Z" fill="#AEAEC4"/>
<path d="M68.8227 10.8068C70.8552 9.52072 73.5592 9.16347 75.7508 10.2709C76.4401 10.5746 77.0056 11.0926 77.5535 11.6106C77.5712 11.1284 77.5535 10.6282 77.5712 10.128C78.7553 10.1459 79.9395 10.128 81.1413 10.1459V25.9007C81.1236 28.2764 80.5227 30.795 78.826 32.5277C76.9703 34.439 74.1248 35.0284 71.5621 34.6355C68.8227 34.2246 66.4367 32.2062 65.3763 29.6518C66.4367 29.1338 67.5502 28.723 68.6459 28.2407C69.2645 29.7054 70.5194 30.9558 72.0923 31.2416C73.6653 31.5274 75.4857 31.1344 76.5108 29.8126C77.6065 28.455 77.6065 26.5973 77.5535 24.9361C76.7405 25.7399 75.8038 26.4544 74.6727 26.7224C72.216 27.419 69.512 26.5616 67.6209 24.8825C65.7121 23.2034 64.581 20.6134 64.687 18.0412C64.7401 15.1296 66.366 12.3251 68.8227 10.8068V10.8068ZM72.4812 13.0932C71.4031 13.2719 70.3956 13.8792 69.7064 14.7187C68.045 16.7193 68.045 19.9167 69.724 21.8816C70.6784 23.0427 72.216 23.6857 73.7006 23.525C75.0969 23.3821 76.387 22.4889 77.0763 21.2564C78.2428 19.1665 78.0484 16.3264 76.4754 14.5044C75.5034 13.379 73.9481 12.8253 72.4812 13.0932V13.0932Z" fill="#AEAEC4"/>
<path d="M92.169 11.7179C94.2898 9.71725 97.5594 9.03847 100.281 10.0924C102.862 11.0748 104.505 13.5577 105.336 16.1121C101.501 17.7197 97.6832 19.3095 93.848 20.9171C94.3782 21.9353 95.1912 22.8641 96.2869 23.2392C97.8245 23.793 99.6626 23.5965 100.953 22.5604C101.465 22.1675 101.872 21.6495 102.261 21.1493C103.233 21.8102 104.205 22.4533 105.177 23.1142C103.798 25.2041 101.483 26.6688 98.991 26.901C96.2339 27.2404 93.3001 26.1687 91.515 23.9894C88.5812 20.5598 88.864 14.8081 92.169 11.7179V11.7179ZM94.06 15.0224C93.4591 15.8977 93.2117 16.9695 93.2294 18.0233C95.7921 16.9516 98.3548 15.8798 100.917 14.7902C100.493 13.7899 99.4682 13.1826 98.4255 13.0218C96.7465 12.7182 94.9968 13.6292 94.06 15.0224V15.0224Z" fill="#AEAEC4"/>
</svg>
