<svg width="100" height="100" viewBox="0 0 100 100" fill="none" xmlns="http://www.w3.org/2000/svg">
<path d="M0 0H100V100H0V0Z" fill="white"/>
<path d="M58.8913 27.3438V27.3339H61.4546L62.3912 27.5225C63.0157 27.645 63.5825 27.8055 64.0919 28.004C64.6013 28.2026 65.0943 28.4343 65.5707 28.699C66.0473 28.9638 66.4794 29.2335 66.8672 29.5082C67.2517 29.7796 67.5968 30.0675 67.9024 30.372C68.2047 30.6798 68.6763 30.7592 69.3171 30.6103C69.958 30.4614 70.6481 30.2545 71.3875 29.9898C72.1269 29.725 72.8582 29.4271 73.5811 29.0962C74.3041 28.7652 74.7445 28.5551 74.9023 28.4657C75.0567 28.3731 75.1389 28.3234 75.1487 28.3168L75.1585 28.3019L75.2078 28.2771L75.2571 28.2523L75.3064 28.2274L75.3557 28.2026L75.3656 28.1877L75.3804 28.1778L75.3952 28.1679L75.405 28.153L75.4543 28.1381L75.5036 28.1281L75.4938 28.2026L75.479 28.2771L75.4543 28.3515L75.4297 28.426L75.405 28.4756L75.3804 28.5253L75.3557 28.5998C75.3393 28.6494 75.3229 28.7156 75.3064 28.7983C75.29 28.8811 75.1339 29.212 74.8381 29.7912C74.5424 30.3704 74.1726 30.9578 73.729 31.5535C73.2853 32.1492 72.8877 32.5993 72.5361 32.9038C72.1812 33.2116 71.9462 33.4267 71.8312 33.5491C71.7162 33.6749 71.5765 33.7907 71.4122 33.8966L71.1657 34.0605L71.1164 34.0853L71.0671 34.1101L71.0573 34.125L71.0424 34.1349L71.0277 34.1449L71.0178 34.1597L70.9685 34.1846L70.9192 34.2094L70.9094 34.2243L70.8946 34.2342L70.8798 34.2441L70.8699 34.259L70.8601 34.2739L70.8453 34.2839L70.8305 34.2938L70.8206 34.3087H71.0671L72.4473 34.0108C73.3675 33.8122 74.2466 33.5723 75.0846 33.291L76.4156 32.8442L76.5634 32.7946L76.6374 32.7697L76.6867 32.7449L76.736 32.7201L76.7853 32.6953L76.8346 32.6705L76.9331 32.6556L77.0317 32.6456V32.7449L77.0071 32.7549L76.9824 32.7697L76.9726 32.7846L76.9578 32.7946L76.943 32.8045L76.9331 32.8194L76.9233 32.8343L76.9085 32.8442L76.8937 32.8541L76.8839 32.869L76.874 32.8839L76.8592 32.8939L76.8346 32.9435L76.8099 32.9931L76.7951 33.0031C76.7886 33.013 76.5799 33.2943 76.1691 33.847C75.7583 34.403 75.5365 34.6843 75.5036 34.6909C75.4708 34.7008 75.4247 34.7505 75.3656 34.8398C75.3097 34.9325 74.9614 35.3015 74.3205 35.9469C73.6797 36.5922 73.0521 37.1664 72.4375 37.6695C71.8197 38.1758 71.5075 38.798 71.5009 39.5361C71.4911 40.2708 71.4533 41.1015 71.3875 42.0281C71.3218 42.9548 71.1986 43.9559 71.0178 45.0315C70.8371 46.1071 70.5577 47.3234 70.1798 48.6803C69.8019 50.0371 69.3418 51.361 68.7995 52.6517C68.2573 53.9424 67.6904 55.1007 67.0989 56.1267C66.5073 57.1526 65.9651 58.0214 65.4721 58.7329C64.9792 59.4444 64.4781 60.1146 63.9687 60.7434C63.4593 61.3723 62.8152 62.0805 62.0364 62.8682C61.2542 63.6525 60.827 64.0828 60.7547 64.1589C60.6791 64.2317 60.3571 64.5031 59.7885 64.973C59.2233 65.4463 58.6153 65.9195 57.9646 66.3928C57.3172 66.8628 56.7224 67.2549 56.1801 67.5693C55.6379 67.8837 54.9839 68.2428 54.2182 68.6466C53.4558 69.0536 52.6309 69.4309 51.7436 69.7784C50.8563 70.1259 49.9197 70.4486 48.9338 70.7465C47.9479 71.0443 46.9949 71.276 46.0747 71.4415C45.1546 71.6069 44.1112 71.7476 42.9445 71.8634L41.1946 72.0372V72.062H37.9904V72.0372L37.5714 72.0124C37.2921 71.9958 37.062 71.9792 36.8813 71.9627C36.7006 71.9462 36.0186 71.8551 34.8355 71.6897C33.6525 71.5242 32.7241 71.3587 32.0504 71.1933C31.3767 71.0278 30.3744 70.7134 29.0434 70.25C27.7125 69.7867 26.5738 69.3184 25.6273 68.8451C24.6842 68.3752 24.0926 68.0773 23.8527 67.9516C23.6161 67.8291 23.3499 67.6769 23.0541 67.4949L22.6105 67.2218L22.6007 67.2069L22.5858 67.197L22.5711 67.1871L22.5612 67.1722L22.5119 67.1474L22.4626 67.1225L22.4528 67.1077L22.438 67.0977L22.4232 67.0878L22.4133 67.0729L22.4035 67.058L22.3887 67.0481H22.364V66.9488L22.4133 66.9587L22.4626 66.9736L22.6844 66.9984C22.8323 67.015 23.2349 67.0398 23.8921 67.0729C24.5494 67.106 25.2477 67.106 25.9872 67.0729C26.7266 67.0398 27.4825 66.9653 28.2547 66.8495C29.027 66.7337 29.939 66.5351 30.9906 66.2538C32.0422 65.9725 33.0084 65.6382 33.8891 65.251C34.7666 64.8605 35.391 64.5693 35.7623 64.3773C36.1304 64.1887 36.6923 63.8378 37.4482 63.3249L38.5819 62.5554L38.5918 62.5405L38.6066 62.5306L38.6214 62.5207L38.6312 62.5058L38.6411 62.4909L38.6559 62.4809L38.6707 62.471L38.6805 62.4561L38.7298 62.4412L38.7791 62.4313L38.789 62.3817L38.8038 62.332L38.8186 62.3221L38.8284 62.3072L38.4341 62.2824C38.1712 62.2658 37.9165 62.2493 37.67 62.2327C37.4235 62.2162 37.0374 62.1417 36.5116 62.0093C35.9858 61.8769 35.4189 61.6784 34.8109 61.4136C34.203 61.1489 33.6114 60.8344 33.0363 60.4704C32.4612 60.1064 32.0455 59.8035 31.7891 59.562C31.5361 59.3236 31.2075 58.9861 30.8033 58.5492C30.4023 58.1091 30.054 57.6573 29.7582 57.194C29.4624 56.7307 29.1798 56.1961 28.9104 55.5905L28.5012 54.687L28.4765 54.6126L28.4519 54.5381L28.4371 54.4885L28.4273 54.4388L28.5012 54.4487L28.5751 54.4636L29.1174 54.5381C29.4789 54.5877 30.0458 54.6043 30.818 54.5877C31.5903 54.5712 32.1243 54.5381 32.4201 54.4885C32.7159 54.4388 32.8966 54.4057 32.9624 54.3892L33.0609 54.3644L33.1842 54.3395L33.3074 54.3147L33.3173 54.2998L33.3321 54.2899L33.3469 54.28L33.3567 54.2651L33.2581 54.2402L33.1595 54.2154L33.0609 54.1906L32.9624 54.1658L32.8638 54.141C32.7981 54.1244 32.6831 54.0913 32.5187 54.0417C32.3544 53.992 31.9108 53.81 31.1877 53.4956C30.4648 53.1812 29.8897 52.8751 29.4624 52.5772C29.0341 52.2785 28.6258 51.9518 28.2399 51.5992C27.8554 51.2418 27.4332 50.7818 26.9731 50.2192C26.513 49.6566 26.1022 49.0029 25.7407 48.2583C25.3792 47.5136 25.1081 46.8021 24.9273 46.1237C24.7473 45.4492 24.6285 44.7596 24.5725 44.0635L24.4837 43.021L24.533 43.0309L24.5823 43.0458L24.6316 43.0706L24.6809 43.0954L24.7302 43.1203L24.7794 43.1451L25.5435 43.4926C26.0529 43.7243 26.6855 43.9228 27.4414 44.0883C28.1972 44.2538 28.6491 44.3448 28.797 44.3613L29.0188 44.3862H29.4624L29.4526 44.3713L29.4378 44.3613L29.423 44.3514L29.4131 44.3365L29.4033 44.3216L29.3885 44.3117L29.3737 44.3018L29.3638 44.2869L29.3146 44.262L29.2653 44.2372L29.2554 44.2223L29.2406 44.2124L29.2258 44.2025L29.216 44.1876L29.1667 44.1628L29.1174 44.1379L29.1076 44.123C29.0977 44.1164 28.9564 44.0105 28.6836 43.8053C28.4141 43.5968 28.1315 43.3271 27.8357 42.9962C27.5399 42.6652 27.2442 42.3177 26.9484 41.9537C26.6521 41.5888 26.3882 41.1984 26.1597 40.7871C25.9297 40.3734 25.6865 39.8471 25.4301 39.2084C25.1771 38.573 24.9849 37.9326 24.8534 37.2872C24.722 36.6419 24.648 36.0048 24.6316 35.376C24.6152 34.7472 24.6316 34.2094 24.6809 33.7626C24.7302 33.3158 24.8287 32.8111 24.9766 32.2485C25.1245 31.6859 25.3382 31.0902 25.6175 30.4614L26.0365 29.5181L26.0611 29.4437L26.0858 29.3692L26.1006 29.3593L26.1104 29.3444L26.1203 29.3295L26.1351 29.3196L26.1499 29.3295L26.1597 29.3444L26.1696 29.3593L26.1843 29.3692L26.1992 29.3791L26.209 29.394L26.2189 29.4089L26.2336 29.4189L26.2583 29.4685L26.2829 29.5181L26.2978 29.5281L26.3076 29.543L26.9731 30.2876C27.4167 30.784 27.9425 31.3384 28.5505 31.9506C29.1585 32.5629 29.4953 32.8806 29.561 32.9038C29.6268 32.9302 29.7089 33.0063 29.8075 33.1321C29.9061 33.2546 30.2347 33.5475 30.7934 34.0108C31.3521 34.4741 32.0833 35.012 32.987 35.6242C33.8908 36.2364 34.8931 36.8405 35.994 37.4362C37.0949 38.0319 38.278 38.5697 39.5432 39.0496C40.8084 39.5295 41.6957 39.8438 42.2051 39.9928C42.7145 40.1417 43.5853 40.332 44.8177 40.5637C46.0501 40.7953 46.9785 40.9443 47.6029 41.0104C48.2273 41.0766 48.6545 41.1147 48.8845 41.1246L49.2296 41.1346L49.2198 41.0601L49.2049 40.9856L49.1063 40.3651C49.0406 39.9514 49.0078 39.3722 49.0078 38.6276C49.0078 37.883 49.0653 37.1962 49.1803 36.5674C49.2953 35.9386 49.4679 35.3015 49.6979 34.6562C49.9279 34.0108 50.1531 33.4928 50.3732 33.1024C50.5967 32.7151 50.8892 32.2733 51.2507 31.7769C51.6122 31.2805 52.0805 30.7675 52.6556 30.238C53.2307 29.7084 53.8879 29.2368 54.6273 28.8231C55.3668 28.4095 56.0487 28.095 56.6731 27.8799C57.2975 27.6648 57.8233 27.5241 58.2505 27.458C58.6777 27.3918 58.8913 27.3537 58.8913 27.3438V27.3438Z" fill="white"/>
<path d="M77.0313 49.2409C77.0313 46.857 76.8379 45.1175 76.4193 43.3135H49.198V54.073H65.1763C64.8543 56.7469 63.1147 60.7737 59.2489 63.4796L59.1947 63.8398L67.8015 70.5074L68.3978 70.567C73.8742 65.5092 77.0313 58.0676 77.0313 49.2409" fill="#4285F4"/>
<path d="M49.1983 77.5897C57.0263 77.5897 63.598 75.0124 68.3981 70.5669L59.2491 63.4796C56.8009 65.1869 53.5149 66.3789 49.1983 66.3789C41.5313 66.3789 35.024 61.3213 32.7043 54.3308L32.3643 54.3597L23.4148 61.2858L23.2977 61.6112C28.0654 71.0822 37.8587 77.5897 49.1983 77.5897Z" fill="#34A853"/>
<path d="M32.7047 54.3307C32.0926 52.5267 31.7384 50.5937 31.7384 48.5965C31.7384 46.5991 32.0926 44.6663 32.6725 42.8623L32.6563 42.4781L23.5946 35.4407L23.2981 35.5817C21.3331 39.5119 20.2056 43.9254 20.2056 48.5965C20.2056 53.2676 21.3331 57.6808 23.2981 61.611L32.7047 54.3307" fill="#FBBC05"/>
<path d="M49.1983 30.8141C54.6424 30.8141 58.3148 33.1657 60.4089 35.131L68.5913 27.1417C63.566 22.4706 57.0263 19.6035 49.1983 19.6035C37.8587 19.6035 28.0654 26.1108 23.2977 35.5818L32.6721 42.8624C35.024 35.8718 41.5313 30.8141 49.1983 30.8141" fill="#EB4335"/>
</svg>
