<svg width="100" height="100" viewBox="0 0 100 100" fill="none" xmlns="http://www.w3.org/2000/svg">
<rect width="100" height="100" fill="url(#paint0_radial)"/>
<rect width="100" height="100" fill="url(#paint1_radial)"/>
<path d="M49.9931 13.0781C39.9673 13.0781 38.7091 13.122 34.7714 13.3012C30.8414 13.4812 28.1588 14.1036 25.8115 15.0168C23.3835 15.9599 21.3239 17.2216 19.272 19.2748C17.2185 21.3273 15.9572 23.3875 15.0113 25.8154C14.0961 28.164 13.4731 30.8481 13.2962 34.7777C13.1209 38.7165 13.0747 39.9758 13.0747 50.0043C13.0747 60.0329 13.1193 61.2876 13.2977 65.2264C13.4785 69.1575 14.1007 71.8408 15.0128 74.1887C15.9565 76.6174 17.2178 78.6775 19.2705 80.73C21.3216 82.784 23.3812 84.0488 25.8077 84.9919C28.1565 85.9051 30.8398 86.5274 34.7691 86.7075C38.7068 86.8867 39.9643 86.9306 49.9893 86.9306C60.0159 86.9306 61.2703 86.8867 65.208 86.7075C69.138 86.5274 71.8237 85.9051 74.1725 84.9919C76.5997 84.0488 78.6562 82.784 80.7074 80.73C82.7608 78.6775 84.0221 76.6174 84.9681 74.1895C85.8756 71.8408 86.4986 69.1567 86.6832 65.2272C86.8601 61.2884 86.9062 60.0329 86.9062 50.0043C86.9062 39.9758 86.8601 38.7172 86.6832 34.7784C86.4986 30.8473 85.8756 28.164 84.9681 25.8161C84.0221 23.3875 82.7608 21.3273 80.7074 19.2748C78.6539 17.2208 76.6005 15.9591 74.1701 15.0168C71.8167 14.1036 69.1326 13.4812 65.2026 13.3012C61.2649 13.122 60.0113 13.0781 49.9824 13.0781H49.9931ZM46.6815 19.7325C47.6644 19.731 48.7611 19.7325 49.9931 19.7325C59.8498 19.7325 61.018 19.7679 64.9103 19.9449C68.5097 20.1095 70.4631 20.7111 71.7644 21.2165C73.4872 21.8858 74.7154 22.6859 76.0067 23.9783C77.2988 25.2707 78.0986 26.5016 78.7693 28.2248C79.2746 29.5249 79.8768 31.4789 80.0406 35.0792C80.2175 38.9719 80.2559 40.1412 80.2559 49.9959C80.2559 59.8506 80.2175 61.0199 80.0406 64.9125C79.876 68.5128 79.2746 70.4668 78.7693 71.767C78.1002 73.4902 77.2988 74.7172 76.0067 76.0089C74.7147 77.3013 73.488 78.1013 71.7644 78.7706C70.4647 79.2784 68.5097 79.8784 64.9103 80.043C61.0188 80.22 59.8498 80.2584 49.9931 80.2584C40.1358 80.2584 38.9675 80.22 35.076 80.043C31.4766 79.8769 29.5232 79.2753 28.2211 78.7699C26.4983 78.1006 25.2678 77.3005 23.9757 76.0081C22.6837 74.7157 21.8838 73.4879 21.2132 71.7639C20.7079 70.4638 20.1057 68.5098 19.9419 64.9095C19.765 61.0168 19.7296 59.8475 19.7296 49.9866C19.7296 40.1258 19.765 38.9626 19.9419 35.07C20.1065 31.4697 20.7079 29.5157 21.2132 28.214C21.8823 26.4908 22.6837 25.2599 23.9757 23.9675C25.2678 22.6751 26.4983 21.875 28.2211 21.2042C29.5224 20.6965 31.4766 20.0964 35.076 19.931C38.4815 19.7772 39.8012 19.731 46.6815 19.7233V19.7325ZM69.6987 25.8638C68.8225 25.8638 67.9659 26.1237 67.2374 26.6107C66.5088 27.0977 65.941 27.7898 65.6058 28.5996C65.2706 29.4094 65.1829 30.3004 65.354 31.16C65.525 32.0196 65.9471 32.8092 66.5668 33.4288C67.1865 34.0485 67.976 34.4704 68.8354 34.6412C69.6948 34.812 70.5856 34.724 71.395 34.3884C72.2044 34.0528 72.8962 33.4846 73.3828 32.7557C73.8694 32.0268 74.1289 31.1699 74.1286 30.2934C74.1286 27.8471 72.1444 25.8623 69.6987 25.8623V25.8638ZM49.9931 31.0412C39.5236 31.0412 31.0352 39.5319 31.0352 50.0043C31.0352 60.4768 39.5236 68.9636 49.9931 68.9636C60.4627 68.9636 68.9488 60.4768 68.9488 50.0043C68.9488 39.5319 60.462 31.0412 49.9924 31.0412H49.9931ZM49.9931 37.6956C56.7888 37.6956 62.2985 43.2061 62.2985 50.0043C62.2985 56.8018 56.7888 62.3131 49.9931 62.3131C43.1967 62.3131 37.6878 56.8018 37.6878 50.0043C37.6878 43.2061 43.1967 37.6956 49.9931 37.6956V37.6956Z" fill="white"/>
<defs>
<radialGradient id="paint0_radial" cx="0" cy="0" r="1" gradientUnits="userSpaceOnUse" gradientTransform="translate(26.5626 107.702) rotate(-90) scale(99.1074 92.1777)">
<stop stop-color="#FFDD55"/>
<stop offset="0.1" stop-color="#FFDD55"/>
<stop offset="0.5" stop-color="#FF543E"/>
<stop offset="1" stop-color="#C837AB"/>
</radialGradient>
<radialGradient id="paint1_radial" cx="0" cy="0" r="1" gradientUnits="userSpaceOnUse" gradientTransform="translate(-16.7505 7.20383) rotate(78.6806) scale(44.3014 182.612)">
<stop stop-color="#3771C8"/>
<stop offset="0.128" stop-color="#3771C8"/>
<stop offset="1" stop-color="#6600FF" stop-opacity="0"/>
</radialGradient>
</defs>
</svg>
