<svg width="179" height="34" viewBox="0 0 179 34" fill="none" xmlns="http://www.w3.org/2000/svg">
<rect x="1.34864" y="10.458" width="27.4873" height="19.3031" rx="1.64834" stroke="#0061FF" strokeWidth="2.69728"/>
<path fillRule="evenodd" clipRule="evenodd" d="M17.9302 7.21285C17.9302 6.61699 17.6311 6.04553 17.0988 5.62419C16.5665 5.20285 15.8445 4.96614 15.0916 4.96614C14.3388 4.96614 13.6168 5.20285 13.0844 5.62419C12.5521 6.04553 12.253 6.61699 12.253 7.21285H9.49023C9.49023 6.69711 9.60377 6.19064 9.81989 5.71437C10.0965 5.10479 10.5411 4.54469 11.1308 4.07794C12.1813 3.24651 13.606 2.77942 15.0916 2.77942C16.5772 2.77942 18.0019 3.24651 19.0524 4.07794C19.6421 4.54469 20.0868 5.10479 20.3634 5.71437C20.5795 6.19064 20.693 6.69711 20.693 7.21285H17.9302Z" fill="#0061FF"/>
<path fillRule="evenodd" clipRule="evenodd" d="M10.8257 20.0333C10.8257 20.0332 10.8266 20.0335 10.8283 20.0341C10.8266 20.0336 10.8257 20.0333 10.8257 20.0333ZM19.3587 20.0333C19.3587 20.0333 19.3578 20.0336 19.3561 20.0341C19.3579 20.0335 19.3587 20.0332 19.3587 20.0333ZM9.75567 19.8873C9.47049 19.1797 10.1093 18.5402 10.8722 18.5402C11.6351 18.5402 12.2464 19.2216 12.7427 19.801C12.8428 19.9178 12.9572 20.0277 13.085 20.1289C13.6174 20.5502 14.3394 20.7869 15.0922 20.7869C15.8451 20.7869 16.5671 20.5502 17.0994 20.1289C17.2273 20.0277 17.3417 19.9178 17.4417 19.801C17.938 19.2216 18.5493 18.5402 19.3122 18.5402C20.0751 18.5402 20.7139 19.1797 20.4288 19.8873C20.1595 20.5555 19.6912 21.17 19.053 21.6751C18.0025 22.5065 16.5778 22.9736 15.0922 22.9736C13.6066 22.9736 12.1819 22.5065 11.1314 21.6751C10.4932 21.17 10.0249 20.5555 9.75567 19.8873Z" fill="#0061FF"/>
<path d="M50.8674 10.0339C50.8674 9.0339 50.0982 8.31592 48.9956 8.31592C47.8929 8.31592 47.1237 9.0339 47.1237 10.0339C47.1237 11.0083 47.8929 11.752 48.9956 11.752C50.0982 11.752 50.8674 11.0083 50.8674 10.0339ZM50.3033 27.445V13.1879H47.7135V27.3937C47.7135 28.9579 46.816 29.5733 45.5595 29.5733C44.9954 29.5733 44.5082 29.4964 44.0723 29.2912V31.7272C44.662 31.9324 45.3031 31.9836 45.8416 31.9836C48.4571 31.9836 50.3033 30.5477 50.3033 27.445Z" fill="#171728"/>
<path d="M66.4352 19.9831C66.4352 15.9573 63.589 12.9315 59.7426 12.9315C55.922 12.9315 53.0757 15.9573 53.0757 19.9831C53.0757 24.0089 55.922 27.0347 59.7426 27.0347C63.589 27.0347 66.4352 24.0089 66.4352 19.9831ZM55.7425 19.9831C55.7425 17.0086 57.5118 15.2393 59.7426 15.2393C61.9991 15.2393 63.7428 17.0086 63.7428 19.9831C63.7428 22.9576 61.9991 24.7526 59.7426 24.7526C57.5118 24.7526 55.7425 22.932 55.7425 19.9831Z" fill="#171728"/>
<path d="M81.9942 19.9831C81.9942 15.8547 79.6352 12.9315 76.0196 12.9315C74.1734 12.9315 72.5836 13.8803 71.6348 15.547V8.3672H69.0706V26.7783H71.4809V24.3423C72.4553 26.0603 74.0964 27.0347 76.0196 27.0347C79.6608 27.0347 81.9942 24.0602 81.9942 19.9831ZM71.6348 19.9318C71.6861 16.8804 73.3272 15.2137 75.4811 15.2137C77.712 15.2137 79.3274 16.906 79.3274 19.9831C79.3274 23.0089 77.712 24.7269 75.4811 24.7269C73.3015 24.7269 71.5835 22.932 71.6348 19.9318Z" fill="#171728"/>
<path d="M103.88 19.9831C103.88 15.8547 101.521 12.9315 97.9056 12.9315C96.0594 12.9315 94.4696 13.8803 93.5208 15.547V8.3672H90.9566V26.7783H93.3669V24.3423C94.3413 26.0603 95.9824 27.0347 97.9056 27.0347C101.547 27.0347 103.88 24.0602 103.88 19.9831ZM93.5208 19.9318C93.5721 16.8804 95.2132 15.2137 97.3671 15.2137C99.598 15.2137 101.213 16.906 101.213 19.9831C101.213 23.0089 99.598 24.7269 97.3671 24.7269C95.1875 24.7269 93.4695 22.932 93.5208 19.9318Z" fill="#171728"/>
<path d="M119.122 19.9831C119.122 15.9573 116.276 12.9315 112.429 12.9315C108.609 12.9315 105.762 15.9573 105.762 19.9831C105.762 24.0089 108.609 27.0347 112.429 27.0347C116.276 27.0347 119.122 24.0089 119.122 19.9831ZM108.429 19.9831C108.429 17.0086 110.198 15.2393 112.429 15.2393C114.686 15.2393 116.429 17.0086 116.429 19.9831C116.429 22.9576 114.686 24.7526 112.429 24.7526C110.198 24.7526 108.429 22.932 108.429 19.9831Z" fill="#171728"/>
<path d="M129.937 26.7783H132.091V18.0599C132.091 14.829 130.142 12.9315 126.783 12.9315C123.706 12.9315 121.398 15.0598 121.296 18.0087H123.655C123.68 16.0599 124.886 14.9829 126.783 14.9829C128.578 14.9829 129.629 16.0855 129.629 18.0343V19.0343C128.629 18.9318 127.911 18.8805 127.091 18.8805C123.039 18.8805 120.911 20.2652 120.911 22.932C120.911 25.4192 122.757 27.0347 125.578 27.0347C127.604 27.0347 129.117 26.1629 129.937 24.6756V26.7783ZM123.398 22.855C123.398 21.2652 124.655 20.496 127.245 20.496C128.04 20.496 128.809 20.5472 129.629 20.6498V21.7524C129.629 23.8551 128.245 25.1885 126.091 25.1885C124.424 25.1885 123.398 24.2654 123.398 22.855Z" fill="#171728"/>
<path d="M137.995 19.8293C137.995 16.8291 140.123 15.5214 143.046 15.7009V13.0597C140.79 12.9059 138.764 14.188 137.815 16.0599V13.1879H135.405V26.7783H137.995V19.8293Z" fill="#171728"/>
<path d="M154.841 26.7783H157.226V8.3672H154.661V15.5214C153.687 13.8546 152.123 12.9315 150.277 12.9315C146.61 12.9315 144.251 15.8547 144.251 19.9831C144.251 24.0602 146.61 27.0347 150.277 27.0347C152.225 27.0347 153.841 26.0603 154.841 24.3423V26.7783ZM146.917 19.9831C146.917 16.906 148.559 15.2137 150.789 15.2137C152.969 15.2137 154.61 16.8804 154.661 19.9318C154.713 22.932 153.02 24.7269 150.789 24.7269C148.559 24.7269 146.917 23.0089 146.917 19.9831Z" fill="#171728"/>
<path d="M168.085 26.7783L171.675 21.3678L175.316 26.7783H178.29L173.521 19.9062L177.983 13.1879H175.188L171.829 18.3164L168.495 13.1879H165.469L169.982 19.8293L165.162 26.7783H168.085Z" fill="#171728"/>
</svg>
