<svg width="100" height="100" viewBox="0 0 100 100" fill="none" xmlns="http://www.w3.org/2000/svg">
<rect width="100" height="100" fill="white"/>
<path d="M46.1359 38.0063L26.621 58.6685L44.3812 48.9242L53.6606 58.6685L73.0654 38.0063L55.5022 47.5801L46.1359 38.0063V38.0063Z" fill="white"/>
<path fill-rule="evenodd" clip-rule="evenodd" d="M48.6052 17.0312C30.6231 17.0312 16.6841 30.2032 16.6841 47.9947C16.6841 57.3008 20.498 65.3424 26.7091 70.8968C27.2305 71.3635 27.5452 72.0172 27.5666 72.7169L27.7405 78.395C27.796 80.2063 29.6668 81.3848 31.3242 80.6531L37.6601 77.8562C38.1972 77.6194 38.799 77.5753 39.365 77.7311C42.2765 78.5317 45.3753 78.9581 48.6052 78.9581C66.5873 78.9581 80.5262 65.7862 80.5262 47.9947C80.5262 30.2032 66.5873 17.0312 48.6052 17.0312Z" fill="url(#paint0_radial)"/>
<path fill-rule="evenodd" clip-rule="evenodd" d="M29.4366 57.0498L38.8134 42.1733C40.305 39.8067 43.499 39.2174 45.737 40.8958L53.1948 46.4892C53.8791 47.0025 54.8206 46.9997 55.502 46.4826L65.5742 38.8385C66.9185 37.8183 68.6734 39.4271 67.7737 40.8548L58.3969 55.7314C56.9052 58.0979 53.7112 58.6873 51.4733 57.0088L44.0153 51.4153C43.3311 50.9021 42.3896 50.9048 41.7082 51.422L31.636 59.0661C30.2917 60.0862 28.5368 58.4774 29.4366 57.0498Z" fill="white"/>
<defs>
<radialGradient id="paint0_radial" cx="0" cy="0" r="1" gradientUnits="userSpaceOnUse" gradientTransform="translate(28.9721 80.5319) scale(69.5621 69.562)">
<stop stop-color="#0099FF"/>
<stop offset="0.609754" stop-color="#A033FF"/>
<stop offset="0.934823" stop-color="#FF5280"/>
<stop offset="1" stop-color="#FF7061"/>
</radialGradient>
</defs>
</svg>
