<svg width="125" height="31" viewBox="0 0 125 31" fill="none" xmlns="http://www.w3.org/2000/svg">
<path d="M13.43 0.325002C11.8174 0.507657 9.39843 1.26638 8.02214 2.0251C4.32425 4.0343 1.82191 7.16753 0.570741 11.3405C0.320508 12.1554 0.0285684 14.3754 0.0424703 15.4151C0.0424703 16.3284 0.320508 18.5624 0.48733 19.0963C0.570741 19.3492 0.751466 19.9534 0.904386 20.417C1.15462 21.2038 2.36408 23.6767 2.57261 23.8453C2.61432 23.8875 2.83675 24.1685 3.04527 24.4916C3.55964 25.2644 4.90812 26.6413 5.92296 27.4281C6.70147 28.0323 8.89796 29.3109 9.176 29.3249C9.24551 29.3249 9.25941 28.791 9.2177 28.0885C9.12039 26.5289 9.41233 24.4073 10.0379 22.2436C10.1491 21.8783 10.2325 21.4005 10.2325 21.1898C10.2325 20.979 10.2881 20.7542 10.3577 20.684C10.4272 20.5997 10.5523 20.1922 10.6218 19.7707C10.7052 19.3492 10.8442 18.7029 10.9415 18.3376C11.0806 17.7896 11.0667 17.5788 10.872 16.9887C10.594 16.0895 10.5801 14.6283 10.8581 13.9257C11.5115 12.2538 12.2344 11.6215 13.4578 11.6215C14.9314 11.6215 15.6404 12.7455 15.3623 14.6283C15.2372 15.4853 14.8897 16.8342 14.6672 17.2557C14.6116 17.3821 14.5143 17.7334 14.4726 18.0285C14.417 18.3376 14.3058 18.7731 14.2363 19.012C14.0417 19.5599 14.417 20.6278 14.9175 21.0352C15.3901 21.4146 16.3772 21.527 17.2808 21.3162C17.9203 21.1757 18.1844 21.0071 18.8517 20.3608C19.6441 19.574 20.2419 18.6607 20.2419 18.2252C20.2419 18.0987 20.3114 17.9301 20.3948 17.8458C20.7841 17.4524 20.9926 14.3894 20.7006 13.0968C20.3809 11.6777 19.3939 10.2867 18.1149 9.47178C16.8359 8.64281 14.1946 8.40396 12.5681 8.96597C11.4281 9.35938 10.4133 10.0197 9.75988 10.7925C9.176 11.481 8.56432 12.605 8.56432 12.9984C8.56432 13.1389 8.49481 13.3216 8.4114 13.4059C8.32798 13.4902 8.23067 14.0241 8.18897 14.6002C8.11946 15.4572 8.17506 15.8506 8.4253 16.6937C8.59212 17.2697 8.89796 17.9441 9.07868 18.1971C9.45403 18.7029 9.45404 18.8996 9.10649 20.2484C9.00918 20.6137 8.84235 20.9509 8.74504 20.9931C7.86922 21.3303 6.08978 19.2087 5.492 17.1011C5.26957 16.3003 5.25567 13.448 5.4781 12.605C5.57541 12.2538 5.74224 11.776 5.85345 11.5231C5.96467 11.2843 6.06198 11.0454 6.06198 10.9892C6.06198 10.933 6.34002 10.4553 6.68756 9.93545C8.49481 7.18158 11.4281 5.72034 15.1399 5.72034C15.9879 5.72034 16.8637 5.77654 17.1001 5.84679C19.0185 6.45096 19.5329 6.64766 20.2836 7.09727C21.7433 7.98245 22.7998 9.19078 23.8564 11.214C23.9259 11.3405 24.0232 11.6777 24.0649 11.9587C24.1205 12.2397 24.2178 12.5067 24.2873 12.5488C24.3568 12.591 24.4124 13.5042 24.4124 14.5861C24.4124 16.5391 24.2734 17.3259 23.6895 18.9277C23.0362 20.684 21.354 22.6229 19.8248 23.3816C18.949 23.8031 17.3086 24.2668 16.6552 24.2668C15.7794 24.2668 14.0556 23.5362 13.5829 22.9461C13.3605 22.6791 13.1519 22.7775 13.1519 23.1568C13.1519 23.2973 13.0963 23.5362 13.0129 23.6767C12.9434 23.8031 12.8183 24.1966 12.7488 24.5478C12.3456 26.4025 11.7756 27.9059 10.8998 29.3109C10.6357 29.7464 10.8581 29.9994 11.581 30.0977C11.9425 30.1539 12.429 30.2523 12.6515 30.3225C13.2075 30.5052 16.2242 30.4771 17.2391 30.2944C18.1566 30.1258 19.6441 29.7043 20.3114 29.4233C24.5098 27.681 27.6933 24.1404 29.0696 19.6302C29.8064 17.2276 29.8481 14.4316 29.1808 11.6215C28.9584 10.7082 28.8888 10.4975 28.2911 9.09243C27.4291 7.04107 25.4829 4.63846 23.5088 3.16317C21.8128 1.89864 20.1446 1.16802 17.5449 0.535757C16.822 0.367153 14.2502 0.22665 13.43 0.325002V0.325002ZM50.5063 5.39718C49.9641 5.48148 49.1022 6.38071 48.8797 7.08322C48.6434 7.85599 48.8797 8.68496 49.547 9.33128C51.0206 10.7785 53.5786 9.41558 53.2588 7.33613C53.0642 6.0154 51.8686 5.17238 50.5063 5.39718ZM35.3532 6.22615C35.2281 6.36666 35.2281 23.3114 35.3671 23.5081C35.4366 23.6205 36.0344 23.6626 37.2022 23.6486L38.9399 23.6345L39.0094 20.7823C39.065 18.464 39.1206 17.902 39.2874 17.8036C39.3987 17.7334 40.344 17.6631 41.3866 17.6631C43.6665 17.6631 44.6258 17.4945 45.6684 16.9325C47.0308 16.1879 47.8232 15.12 48.2541 13.4199C48.5183 12.3521 48.5183 11.5793 48.2402 10.4834C47.99 9.49989 47.8788 9.26103 47.281 8.46016C46.5442 7.46258 45.7935 6.91462 44.5702 6.47906C43.889 6.25425 43.319 6.2121 39.635 6.16995C37.3412 6.14185 35.4088 6.16995 35.3532 6.22615V6.22615ZM42.9853 9.72469C43.9168 10.0197 44.3755 10.4413 44.5841 11.2C44.8482 12.1976 44.6536 13.1249 44.0697 13.6869C43.4302 14.2911 42.8602 14.4316 40.9974 14.4316C39.774 14.4316 39.3987 14.3894 39.2318 14.2068C39.0511 14.0382 39.0094 13.6307 39.0094 12.0289C39.0094 9.49989 38.9955 9.51394 40.9279 9.51394C41.762 9.51394 42.5683 9.59824 42.9853 9.72469ZM67.3692 8.89572C67.3692 9.86519 67.2997 10.7785 67.2302 10.933C67.1329 11.1157 66.9383 11.2 66.6046 11.2C66.3544 11.2 66.118 11.2562 66.0902 11.3405C66.0763 11.4107 66.0763 11.9025 66.1181 12.4224C66.1876 13.3497 66.2015 13.3637 66.6185 13.4621C66.8549 13.5042 67.119 13.5885 67.2024 13.6447C67.3275 13.715 67.3692 14.825 67.3692 17.635C67.3692 21.4146 67.3831 21.5551 67.689 22.1171C68.3284 23.3114 69.3294 23.7329 71.3591 23.6767L72.7214 23.6345L72.7631 22.2717L72.8049 20.8947H72.4573C71.929 20.8947 71.1505 20.4732 71.0671 20.136C71.0254 19.9674 70.9837 18.4781 70.9837 16.8061C70.9837 14.5018 71.0254 13.729 71.1644 13.6166C71.2617 13.5323 71.651 13.448 72.0263 13.4199L72.7214 13.3778V11.2702L71.9568 11.2281C71.5398 11.2 71.1505 11.1016 71.0949 11.0173C71.0393 10.919 70.9837 10.0057 70.9837 8.98002V7.12538H67.3692V8.89572ZM119.042 7.20968C118.987 7.26588 118.945 8.15105 118.945 9.17673C118.945 11.1719 118.931 11.2 118.167 11.2C117.819 11.2 117.819 11.214 117.861 12.2819C117.903 13.3497 117.916 13.3778 118.278 13.4199C118.472 13.448 118.709 13.5464 118.778 13.6307C118.862 13.729 118.945 15.4291 118.987 17.5929C119.029 19.6723 119.098 21.5691 119.154 21.7939C119.321 22.4122 120.182 23.199 121.003 23.4659C121.92 23.775 124.256 23.8032 124.492 23.5081C124.603 23.3816 124.645 22.8758 124.617 22.1452L124.575 20.965L124.089 20.8807C123.561 20.7964 122.963 20.5154 122.81 20.2765C122.754 20.1922 122.699 18.6607 122.699 16.8763C122.699 13.2092 122.615 13.448 123.825 13.448C124.617 13.448 124.687 13.3075 124.617 12.0289L124.575 11.2702L123.672 11.2L122.768 11.1297L122.699 9.16268L122.629 7.19563L120.878 7.15348C119.918 7.13943 119.098 7.16753 119.042 7.20968V7.20968ZM60.4878 10.8628C59.8066 11.0454 59.0142 11.5091 58.4859 12.057C57.8464 12.7315 57.6796 12.6893 57.6101 11.8322L57.5684 11.2702H54.0929V23.6345L55.8446 23.6626C57.5684 23.7048 57.6101 23.6907 57.6935 23.3816C57.7352 23.213 57.7769 21.4286 57.7769 19.4054C57.7769 15.401 57.7908 15.2886 58.611 14.5018C58.9725 14.1506 59.1671 14.0803 59.9456 14.0381L60.8492 13.9819L61.3914 14.558C62.0309 15.2324 61.9614 14.5861 62.017 20.403C62.0309 21.9485 62.0448 23.3114 62.0587 23.4519C62.0865 23.6486 62.3089 23.6767 63.8659 23.6486L65.6315 23.6345V13.7712L65.2283 12.9703C64.5332 11.5793 63.4628 10.919 61.8224 10.8347C61.2385 10.8206 60.6407 10.8206 60.4878 10.8628V10.8628ZM77.8651 10.8628C76.3637 11.2702 75.6408 11.6777 74.7094 12.605C73.4582 13.8836 72.8883 15.3729 72.8883 17.3821C72.9022 20.9088 75.0848 23.5221 78.31 23.8312C81.0626 24.0982 83.1895 23.2833 84.5519 21.4427C84.7466 21.1757 85.1636 20.3187 85.1636 20.1641C85.1636 20.1079 84.3573 20.0517 83.3842 20.0517H81.6047L81.1877 20.4873C80.7011 20.9931 80.0199 21.3162 79.3943 21.3162C78.7688 21.3162 77.8095 20.8666 77.3647 20.3889C77.031 20.0096 76.5445 18.9136 76.5445 18.5343C76.5445 18.4078 77.5593 18.3657 80.8262 18.3657C83.1756 18.3657 85.1636 18.3095 85.2609 18.2533C85.4695 18.1128 85.2748 15.8787 84.969 15.0638C84.3434 13.3637 83.1617 11.9306 81.9662 11.4248C81.6186 11.2843 81.2155 11.1016 81.0765 11.0314C80.7845 10.8768 78.31 10.7504 77.8651 10.8628V10.8628ZM80.576 13.9398C81.1182 14.3192 81.5908 15.2184 81.5213 15.7242C81.4796 16.0474 81.4518 16.0474 79.1024 16.0895C76.3915 16.1317 76.3776 16.1176 76.8086 15.106C77.1144 14.4035 77.7261 13.7712 78.2961 13.5885C78.9495 13.3778 80.006 13.5464 80.576 13.9398ZM98.4399 10.8628C96.8273 11.2983 95.7012 12.0149 94.8254 13.1249C94.4779 13.5745 94.1998 13.996 94.1998 14.0803C94.1998 14.1506 94.1025 14.4035 93.9774 14.6423C93.8523 14.8671 93.6716 15.5696 93.5742 16.2019C93.0877 19.2087 94.4223 22.0188 96.9246 23.2833L97.8838 23.775H99.8996C101.985 23.775 102.166 23.7329 103.445 23.0444C104.376 22.5386 105.905 20.5716 105.669 20.1782C105.613 20.1079 104.821 20.0517 103.889 20.0517H102.18L101.832 20.4592C100.442 22.0469 97.8421 21.2319 97.286 19.026C97.2026 18.731 97.2026 18.4781 97.2721 18.4219C97.3416 18.3797 99.3296 18.3516 101.707 18.3657C105.099 18.3657 106.016 18.3376 106.03 18.1971C106.155 16.4408 105.321 13.8414 104.279 12.7174C103.695 12.0852 102.68 11.3826 102.18 11.2562C101.957 11.2 101.707 11.1016 101.61 11.0314C101.415 10.8768 98.8709 10.7504 98.4399 10.8628V10.8628ZM100.609 13.6026C101.234 13.8274 101.957 14.6142 102.068 15.2184C102.235 16.1317 102.249 16.1317 99.6633 16.0895C97.3416 16.0474 97.3278 16.0474 97.286 15.7242C97.2304 15.3308 97.717 14.3613 98.1341 13.996C98.7318 13.4902 99.7745 13.3216 100.609 13.6026V13.6026ZM110.535 10.8628C107.685 11.5512 106.656 12.5769 106.642 14.7126C106.642 17.0168 107.782 17.9863 111.16 18.5905C113.482 18.9979 114.149 19.3632 114.121 20.2484C114.107 20.8807 113.676 21.2881 112.814 21.4708C111.73 21.7096 110.882 21.4427 110.201 20.6699L109.659 20.0517H107.977C106.614 20.0517 106.294 20.0939 106.294 20.2484C106.294 20.6559 106.851 21.7237 107.309 22.2576C107.74 22.7213 108.074 22.9461 109.381 23.5783C109.506 23.6486 110.187 23.761 110.868 23.8453C112.133 23.9999 114.33 23.8594 114.886 23.5783C115.011 23.5221 115.372 23.3395 115.678 23.199C116.471 22.8196 117.221 21.9626 117.499 21.1476C117.805 20.2203 117.722 18.9277 117.291 18.0285C116.776 16.9747 115.414 16.216 113.384 15.8506C110.771 15.387 110.729 15.3729 110.312 14.9655C109.812 14.4456 109.812 14.263 110.312 13.7009C110.715 13.2513 110.743 13.2373 111.855 13.2373C112.967 13.2373 112.995 13.2513 113.398 13.7009C113.621 13.9538 113.801 14.2489 113.801 14.3613C113.801 14.5299 114.093 14.5721 115.539 14.5721C117.458 14.5721 117.402 14.6142 117.068 13.6166C116.457 11.8463 114.886 10.9471 112.272 10.8487C111.466 10.8206 110.687 10.8206 110.535 10.8628V10.8628ZM92.045 11.1578C91.4334 11.3686 90.5853 12.0711 90.3212 12.5769C90.0571 13.0827 89.8207 12.872 89.7512 12.0289L89.6817 11.2702H86.2063L86.1646 17.1714C86.1506 20.417 86.1645 23.213 86.2063 23.3957C86.2758 23.7048 86.3175 23.7048 87.9857 23.6767C88.9449 23.6626 89.7234 23.5783 89.779 23.494C89.8346 23.4238 89.8903 21.9345 89.8903 20.1922C89.8903 17.4383 89.9181 16.9466 90.1544 16.3284C90.641 15.0498 91.6836 14.2911 92.9904 14.2911C93.3518 14.2911 93.5047 14.2208 93.5464 14.0381C93.6438 13.6307 93.6577 11.7339 93.5742 11.3124C93.4908 10.9752 93.4213 10.919 93.046 10.933C92.7957 10.9471 92.3509 11.0454 92.045 11.1578V11.1578ZM49.2273 11.3686C49.1856 11.4669 49.1717 14.2349 49.1856 17.5226L49.2273 23.494L50.8816 23.5643C51.8825 23.6064 52.6054 23.5783 52.7167 23.494C52.8696 23.3816 52.9113 22.1874 52.9113 17.4102C52.9252 14.1506 52.8835 11.4107 52.8418 11.3405C52.7027 11.1297 49.2968 11.1578 49.2273 11.3686V11.3686Z" fill="#AEAEC4"/>
</svg>
