<svg width="100" height="100" viewBox="0 0 100 100" fill="none" xmlns="http://www.w3.org/2000/svg">
<rect width="100" height="100" fill="#1DA1F2"/>
<path d="M58.6103 27.2134V27.2035H61.1614L62.0936 27.3912C62.715 27.5131 63.2792 27.6728 63.7861 27.8705C64.2931 28.0681 64.7837 28.2987 65.2579 28.5622C65.7322 28.8256 66.1623 29.0941 66.5482 29.3675C66.9309 29.6376 67.2743 29.9241 67.5785 30.2271C67.8793 30.5334 68.3486 30.6125 68.9864 30.4643C69.6242 30.3161 70.311 30.1102 71.0469 29.8467C71.7828 29.5832 72.5105 29.2868 73.2301 28.9574C73.9496 28.628 74.3879 28.4189 74.5449 28.3299C74.6986 28.2378 74.7804 28.1883 74.7902 28.1817L74.8 28.1669L74.849 28.1422L74.8981 28.1175L74.9471 28.0928L74.9962 28.0681L75.006 28.0533L75.0207 28.0434L75.0355 28.0335L75.0452 28.0187L75.0943 28.0039L75.1434 27.994L75.1336 28.0681L75.1188 28.1422L75.0943 28.2163L75.0698 28.2904L75.0452 28.3398L75.0207 28.3892L74.9962 28.4633C74.9799 28.5127 74.9635 28.5786 74.9471 28.661C74.9308 28.7433 74.7754 29.0727 74.4811 29.6491C74.1867 30.2255 73.8188 30.8101 73.3772 31.403C72.9357 31.9959 72.54 32.4438 72.19 32.7468C71.8368 33.0532 71.6029 33.2672 71.4884 33.3891C71.374 33.5143 71.235 33.6295 71.0714 33.735L70.8261 33.898L70.7771 33.9227L70.728 33.9474L70.7183 33.9622L70.7035 33.9721L70.6888 33.982L70.679 33.9968L70.6299 34.0215L70.5808 34.0462L70.5711 34.061L70.5563 34.0709L70.5416 34.0808L70.5318 34.0956L70.522 34.1104L70.5073 34.1203L70.4925 34.1302L70.4827 34.145H70.728L72.1017 33.8486C73.0175 33.651 73.8924 33.4122 74.7264 33.1322L76.051 32.6875L76.1981 32.6381L76.2717 32.6134L76.3208 32.5887L76.3699 32.564L76.4189 32.5393L76.468 32.5146L76.5661 32.4998L76.6642 32.4899V32.5887L76.6397 32.5986L76.6152 32.6134L76.6054 32.6283L76.5906 32.6381L76.5759 32.648L76.5661 32.6628L76.5563 32.6777L76.5416 32.6875L76.5268 32.6974L76.517 32.7123L76.5073 32.7271L76.4925 32.737L76.468 32.7864L76.4434 32.8358L76.4287 32.8456C76.4222 32.8555 76.2145 33.1355 75.8057 33.6855C75.3969 34.2389 75.1761 34.5188 75.1434 34.5254C75.1107 34.5353 75.0649 34.5847 75.006 34.6737C74.9504 34.7659 74.6037 35.1331 73.9659 35.7754C73.3282 36.4177 72.7035 36.9891 72.0919 37.4898C71.4771 37.9937 71.1663 38.6129 71.1598 39.3475C71.15 40.0787 71.1124 40.9054 71.0469 41.8276C70.9815 42.7499 70.8589 43.7462 70.679 44.8167C70.4991 45.8872 70.2211 47.0976 69.845 48.448C69.4689 49.7984 69.0109 51.116 68.4713 52.4005C67.9316 53.6851 67.3675 54.8378 66.7787 55.8589C66.19 56.88 65.6504 57.7446 65.1598 58.4527C64.6692 59.1609 64.1704 59.8278 63.6635 60.4537C63.1565 61.0795 62.5155 61.7844 61.7404 62.5682C60.962 63.3489 60.5368 63.7771 60.4648 63.8528C60.3896 63.9253 60.0691 64.1954 59.5032 64.6631C58.9407 65.134 58.3356 65.605 57.688 66.0761C57.0437 66.5438 56.4517 66.9341 55.9121 67.247C55.3724 67.5599 54.7216 67.9172 53.9595 68.3191C53.2008 68.7242 52.3798 69.0997 51.4967 69.4455C50.6137 69.7914 49.6815 70.1125 48.7003 70.409C47.7192 70.7054 46.7707 70.936 45.8549 71.1006C44.9392 71.2653 43.9007 71.4053 42.7396 71.5206L40.998 71.6935V71.7182H37.8092V71.6935L37.3922 71.6688C37.1142 71.6524 36.8852 71.6359 36.7053 71.6194C36.5255 71.603 35.8468 71.5123 34.6694 71.3477C33.4919 71.183 32.568 71.0183 31.8975 70.8536C31.2271 70.6889 30.2295 70.376 28.9049 69.9149C27.5803 69.4538 26.447 68.9877 25.5051 68.5167C24.5664 68.049 23.9777 67.7526 23.7389 67.6274C23.5034 67.5055 23.2385 67.354 22.9442 67.1729L22.5026 66.9011L22.4929 66.8863L22.4781 66.8764L22.4634 66.8666L22.4536 66.8517L22.4045 66.827L22.3554 66.8023L22.3457 66.7875L22.3309 66.7776L22.3162 66.7677L22.3064 66.7529L22.2966 66.7381L22.2819 66.7282H22.2573V66.6294L22.3064 66.6393L22.3554 66.6541L22.5762 66.6788C22.7234 66.6953 23.1241 66.72 23.7782 66.7529C24.4323 66.7859 25.1273 66.7859 25.8632 66.7529C26.5991 66.72 27.3514 66.6459 28.1199 66.5306C28.8885 66.4153 29.7961 66.2177 30.8427 65.9377C31.8894 65.6577 32.8509 65.3251 33.7275 64.9397C34.6007 64.5511 35.2221 64.2612 35.5917 64.0702C35.958 63.8824 36.5173 63.5333 37.2695 63.0228L38.3979 62.257L38.4077 62.2422L38.4224 62.2323L38.4372 62.2224L38.4469 62.2076L38.4567 62.1928L38.4715 62.1829L38.4862 62.173L38.496 62.1582L38.545 62.1434L38.5941 62.1335L38.6039 62.0841L38.6186 62.0347L38.6334 62.0248L38.6432 62.01L38.2507 61.9853C37.9891 61.9688 37.7356 61.9523 37.4903 61.9358C37.245 61.9194 36.8607 61.8453 36.3374 61.7135C35.8141 61.5818 35.2499 61.3841 34.6448 61.1207C34.0398 60.8572 33.4511 60.5442 32.8787 60.1819C32.3064 59.8196 31.8926 59.5182 31.6375 59.2778C31.3857 59.0406 31.0586 58.7047 30.6563 58.2699C30.2573 57.8319 29.9106 57.3823 29.6162 56.9211C29.3219 56.46 29.0406 55.928 28.7725 55.3253L28.3652 54.4261L28.3407 54.352L28.3162 54.2779L28.3014 54.2285L28.2916 54.1791L28.3652 54.189L28.4388 54.2038L28.9785 54.2779C29.3383 54.3273 29.9024 54.3438 30.671 54.3273C31.4396 54.3109 31.9711 54.2779 32.2654 54.2285C32.5598 54.1791 32.7397 54.1462 32.8051 54.1297L32.9032 54.105L33.0259 54.0803L33.1485 54.0556L33.1583 54.0408L33.173 54.0309L33.1878 54.021L33.1976 54.0062L33.0995 53.9815L33.0013 53.9568L32.9032 53.9321L32.8051 53.9074L32.707 53.8827C32.6416 53.8662 32.5271 53.8333 32.3636 53.7839C32.2 53.7345 31.7585 53.5533 31.039 53.2404C30.3195 52.9275 29.7471 52.6228 29.3219 52.3264C28.8956 52.0291 28.4892 51.704 28.1052 51.3531C27.7225 50.9974 27.3023 50.5395 26.8444 49.9796C26.3865 49.4197 25.9777 48.7692 25.6179 48.0281C25.2581 47.287 24.9883 46.5789 24.8084 45.9036C24.6292 45.2324 24.511 44.5461 24.4552 43.8533L24.3669 42.8158L24.4159 42.8256L24.465 42.8405L24.5141 42.8652L24.5631 42.8899L24.6122 42.9146L24.6612 42.9393L25.4217 43.2851C25.9286 43.5157 26.5582 43.7133 27.3104 43.878C28.0627 44.0427 28.5124 44.1333 28.6596 44.1497L28.8803 44.1744H29.3219L29.3121 44.1596L29.2973 44.1497L29.2826 44.1398L29.2728 44.125L29.2631 44.1102L29.2483 44.1003L29.2336 44.0904L29.2238 44.0756L29.1747 44.0509L29.1256 44.0262L29.1159 44.0114L29.1011 44.0015L29.0864 43.9916L29.0766 43.9768L29.0275 43.9521L28.9785 43.9274L28.9687 43.9126C28.9589 43.906 28.8182 43.8006 28.5467 43.5964C28.2785 43.3889 27.9973 43.1204 27.7029 42.7911C27.4086 42.4617 27.1142 42.1158 26.8198 41.7535C26.525 41.3904 26.2623 41.0019 26.0349 40.5925C25.806 40.1808 25.5639 39.657 25.3088 39.0214C25.057 38.389 24.8657 37.7517 24.7348 37.1094C24.604 36.4671 24.5304 35.8331 24.5141 35.2072C24.4977 34.5814 24.5141 34.0462 24.5631 33.6016C24.6122 33.1569 24.7103 32.6546 24.8575 32.0947C25.0047 31.5348 25.2173 30.9419 25.4952 30.3161L25.9123 29.3774L25.9368 29.3032L25.9613 29.2291L25.9761 29.2193L25.9858 29.2044L25.9957 29.1896L26.0104 29.1797L26.0251 29.1896L26.0349 29.2044L26.0447 29.2193L26.0594 29.2291L26.0742 29.239L26.084 29.2538L26.0938 29.2687L26.1085 29.2785L26.133 29.3279L26.1575 29.3774L26.1723 29.3872L26.1821 29.4021L26.8444 30.1431C27.2859 30.6372 27.8092 31.1889 28.4143 31.7982C29.0194 32.4076 29.3546 32.7238 29.42 32.7468C29.4854 32.7732 29.5672 32.8489 29.6653 32.9741C29.7634 33.096 30.0905 33.3875 30.6465 33.8486C31.2025 34.3097 31.9302 34.845 32.8296 35.4543C33.7291 36.0636 34.7266 36.6647 35.8223 37.2576C36.9179 37.8505 38.0954 38.3857 39.3545 38.8633C40.6137 39.3409 41.4968 39.6538 42.0037 39.802C42.5107 39.9502 43.3774 40.1396 44.6039 40.3702C45.8304 40.6007 46.7544 40.749 47.3757 40.8148C47.9972 40.8807 48.4224 40.9186 48.6513 40.9285L48.9947 40.9383L48.9849 40.8642L48.9702 40.7901L48.8721 40.1725C48.8067 39.7608 48.7739 39.1844 48.7739 38.4433C48.7739 37.7022 48.8312 37.0188 48.9456 36.393C49.0601 35.7672 49.2319 35.1331 49.4608 34.4909C49.6897 33.8486 49.9138 33.3331 50.1329 32.9445C50.3553 32.5591 50.6464 32.1194 51.0061 31.6253C51.3659 31.1313 51.832 30.6208 52.4043 30.0937C52.9767 29.5667 53.6308 29.0974 54.3667 28.6857C55.1026 28.274 55.7813 27.961 56.4027 27.747C57.0241 27.5329 57.5474 27.3929 57.9726 27.327C58.3978 27.2611 58.6103 27.2233 58.6103 27.2134V27.2134Z" fill="white"/>
</svg>
