<svg width="100" height="100" viewBox="0 0 100 100" fill="none" xmlns="http://www.w3.org/2000/svg">
<rect width="100" height="100" fill="#4253FF"/>
<path d="M64.8924 41.1724C64.8924 41.1724 60.0372 56.8328 59.6437 58.1255C59.4993 56.7959 55.9401 28.6884 55.9401 28.6884C47.67 28.6884 43.2336 34.7457 40.9125 41.1354C40.9125 41.1354 35.0177 56.8328 34.5123 58.1625C34.4762 56.9436 33.6134 41.3201 33.6134 41.3201C33.1261 33.4899 26.1376 28.7253 20.4918 28.7253L27.3216 71.3113C35.9851 71.2744 40.6598 65.254 43.1036 58.8642C43.1036 58.8642 48.3162 45.0136 48.5183 44.3857C48.5689 44.9767 52.2581 71.3113 52.2581 71.3113C60.9577 71.3113 65.6324 65.6603 68.1412 59.4921L80.3279 28.7253C71.751 28.7253 67.2279 34.7457 64.8924 41.1724Z" fill="white"/>
</svg>
