<svg width="126" height="33" viewBox="0 0 126 33" fill="none" xmlns="http://www.w3.org/2000/svg">
<path d="M40.9228 13.1872C40.9228 10.9252 38.7465 8.52288 34.9804 8.52288C30.7512 8.52288 26.1053 11.6584 25.3953 17.9139C24.6698 24.2318 28.5594 27.0398 32.4799 27.0398C36.4004 27.0398 38.4532 25.4954 40.5524 23.4362C38.7465 21.1431 36.4158 22.2039 35.9682 22.4379C35.4743 22.6874 34.8414 23.0306 33.5449 23.0306C32.0323 23.0306 30.4888 22.3443 30.4888 19.4895C40.1819 18.5223 40.9228 15.4492 40.9228 13.1872ZM36.1225 13.5616C36.0608 14.2636 35.783 15.4648 30.8747 16.1356C31.9088 12.4228 33.8845 12.142 34.7951 12.142C35.6441 12.142 36.1843 12.8128 36.1225 13.5616ZM19.6998 14.17C19.6998 14.17 17.6161 20.7843 17.4463 21.3303C17.3846 20.7687 15.8565 8.89727 15.8565 8.89727C12.3065 8.89727 10.408 11.4556 9.40472 14.1544C9.40472 14.1544 6.8734 20.7843 6.65731 21.3459C6.64187 20.8311 6.27144 14.2324 6.27144 14.2324C6.05535 10.9252 3.06098 8.91287 0.637695 8.91287L3.57033 26.8994C7.29014 26.8838 9.29668 24.341 10.3462 21.6423C10.3462 21.6423 12.5843 15.7924 12.6769 15.5272C12.6924 15.7768 14.2821 26.8994 14.2821 26.8994C18.0174 26.8994 20.0239 24.5126 21.1044 21.9075L26.3368 8.91287C22.6479 8.91287 20.7031 11.4556 19.6998 14.17ZM54.629 8.49168C52.3292 8.49168 50.5696 9.75526 49.0879 11.6116V11.596L50.4153 0.7854C47.3591 0.7854 44.8741 3.46856 44.3956 7.46209L42.0804 26.759C43.84 26.759 45.7076 26.2442 46.7109 24.9338C47.6061 26.1038 48.9489 27.0398 50.94 27.0398C56.0953 27.0398 59.6299 20.9871 59.6299 15.3088C59.599 10.1297 57.114 8.49168 54.629 8.49168ZM54.1505 17.7735C53.6103 20.9403 51.8661 23.093 50.1837 23.093C48.4859 23.093 47.7605 22.3287 47.7605 22.3287C48.0846 19.5519 48.2852 17.8515 48.9026 16.3852C49.52 14.9188 50.9863 12.5788 52.5144 12.5788C54.0116 12.5788 54.6907 14.5912 54.1505 17.7735ZM72.5026 8.91287H68.9063L68.9217 8.72567C69.1687 6.35451 69.7243 5.10653 71.5611 4.90373C72.8113 4.77894 73.367 4.12375 73.5059 3.40616C73.6139 2.84457 73.9535 0.894599 73.9535 0.894599C66.7299 0.8478 64.461 3.99895 63.8745 8.80367L63.8591 8.91287H63.7819C62.6088 8.91287 61.3123 10.2544 61.0962 11.9548L61.019 12.5788H63.4269L61.4049 29.4577L60.7875 32.4841C60.8647 32.4841 60.9573 32.4997 61.0345 32.4997C64.4147 32.3749 66.5756 29.6761 67.0541 25.7606L68.6284 12.5788H69.7552C70.8665 12.5788 72.163 11.4556 72.3946 9.58366L72.5026 8.91287ZM91.2097 8.60087C87.0577 8.60087 83.1373 11.6896 81.9333 16.5411C80.7294 21.3927 82.5507 27.1334 88.663 27.1334C94.7597 27.1334 98.2789 21.1587 98.2789 16.1824C98.2789 11.2372 94.9604 8.60087 91.2097 8.60087ZM92.8921 17.6175C92.676 19.8171 91.7191 23.1554 89.0951 23.1554C86.4558 23.1554 86.8262 19.2555 87.0886 17.3991C87.3664 15.418 88.4623 12.5944 90.8238 12.5944C92.9384 12.5944 93.1391 15.1372 92.8921 17.6175ZM118.792 14.17C118.792 14.17 116.708 20.7843 116.538 21.3303C116.477 20.7687 114.949 8.89727 114.949 8.89727C111.399 8.89727 109.5 11.4556 108.497 14.1544C108.497 14.1544 105.965 20.7843 105.749 21.3459C105.734 20.8311 105.364 14.2324 105.364 14.2324C105.147 10.9252 102.153 8.91287 99.7298 8.91287L102.647 26.8994C106.367 26.8838 108.373 24.341 109.423 21.6423C109.423 21.6423 111.661 15.7924 111.738 15.5272C111.754 15.7768 113.343 26.8994 113.343 26.8994C117.079 26.8994 119.085 24.5126 120.166 21.9075L125.398 8.91287C121.725 8.91287 119.78 11.4556 118.792 14.17ZM75.8983 0.894599L72.873 25.5578L72.2556 28.5998C72.3328 28.5998 72.4254 28.6154 72.5026 28.6154C75.7594 28.5686 78.0746 25.6826 78.5068 22.0479L80.2509 7.89889C80.7757 3.57776 78.229 0.894599 75.8983 0.894599Z" fill="#AEAEC4"/>
</svg>
