<svg width="114" height="26" viewBox="0 0 114 26" fill="none" xmlns="http://www.w3.org/2000/svg">
<path d="M18.9167 25.759L11.5139 25.6221C9.11693 25.5745 6.7141 25.6697 4.36428 25.1757C0.789479 24.4376 0.53624 20.8187 0.271222 17.7831C-0.0939137 13.5154 0.0474292 9.1703 0.736476 4.93831C1.12517 2.56339 2.65638 1.14677 5.02388 0.992018C13.0156 0.432514 21.0604 0.497988 29.0345 0.759883C29.8767 0.783692 30.7247 0.91464 31.5551 1.06344C35.6541 1.78961 35.7542 5.89066 36.0192 9.34292C36.2842 12.8309 36.1723 16.3367 35.6658 19.8009C35.2595 22.6698 34.4821 25.0745 31.2018 25.3066C27.091 25.6102 23.0745 25.8542 18.952 25.7769C18.952 25.759 18.9285 25.759 18.9167 25.759V25.759ZM14.5645 18.4974C17.6623 16.6998 20.7012 14.932 23.7813 13.1464C20.6776 11.3488 17.6446 9.581 14.5645 7.79535V18.4974Z" fill="#AEAEC4"/>
<path d="M95.3972 22.4972C95.2558 23.0805 95.1322 23.5389 95.0085 24.027H92.111V1.43823H95.4914V9.77136C95.6681 9.54517 95.7564 9.44994 95.833 9.34875C96.4101 8.5452 97.1581 8.0214 98.1239 7.81903C99.661 7.51546 100.974 8.19997 101.44 9.69398C101.74 10.6225 101.934 11.6166 101.958 12.5868C102.005 15.0808 101.97 17.5688 101.881 20.0628C101.846 20.8247 101.616 21.6044 101.328 22.3187C100.38 24.6757 97.2817 25.0329 95.7446 22.9913C95.6504 22.8663 95.5621 22.7294 95.3972 22.4972V22.4972ZM95.5621 16.2831V20.4139C95.5621 21.0866 95.9154 21.4973 96.5809 21.652C97.2346 21.8068 97.7647 21.5508 98.0297 20.9377C98.1416 20.6818 98.2535 20.4139 98.2594 20.1461C98.3242 17.6224 98.383 15.0986 98.4007 12.5689C98.4007 12.0987 98.2888 11.6106 98.1475 11.1523C97.8825 10.3249 97.1522 10.0809 96.4337 10.563C95.8919 10.932 95.5621 11.4558 95.5621 12.1523V16.2831ZM86.3748 8.14045H89.9143V24.0389H87.1522C87.0521 23.4377 86.952 22.8187 86.8342 22.0925C86.6457 22.3722 86.5338 22.5508 86.416 22.7294C85.4973 24.0686 84.1958 24.5269 82.6587 24.2829C81.3454 24.0686 80.5562 23.0448 80.3795 21.3663C80.3265 20.8663 80.303 20.3604 80.303 19.8604C80.2912 16.1402 80.303 12.4082 80.303 8.68805V8.12854H83.8836V8.77734C83.8836 12.3725 83.8719 15.9617 83.8954 19.5568C83.8954 20.0687 83.9484 20.5985 84.0368 21.1104C84.1369 21.6342 84.5138 21.8246 85.0203 21.7889C85.8389 21.7234 86.4042 21.1104 86.4042 20.289V8.84281C86.3748 8.61067 86.3748 8.39639 86.3748 8.14045V8.14045ZM62.005 8.12854H65.5621V8.80114C65.5621 12.3784 65.5503 15.9498 65.5739 19.5152C65.5739 20.0271 65.621 20.5568 65.727 21.0568C65.8624 21.6461 66.204 21.8365 66.7871 21.7592C67.5939 21.6461 68.0827 21.0806 68.0886 20.2532V8.86662V8.15235H71.628V24.0389H68.8778C68.7776 23.4496 68.6775 22.8425 68.548 22.0746C68.3713 22.3425 68.2712 22.4972 68.171 22.6579C67.2523 24.021 65.9626 24.521 64.3901 24.2769C63.1298 24.0865 62.3583 23.146 62.1228 21.6044C62.058 21.1223 62.0109 20.6461 62.0109 20.164C61.9991 16.301 61.9991 12.4201 61.9991 8.5571L62.005 8.12854ZM60.1793 16.6164C60.1675 17.1521 60.1322 17.6878 60.1027 18.2235C59.9673 19.8306 59.9025 22.1103 58.6186 23.2829C57.8 24.021 56.7635 24.2889 55.6917 24.3246C55.2146 24.3365 54.7317 24.3365 54.2547 24.271C51.9991 23.9258 50.9508 22.9198 50.5739 20.4139C50.144 17.5212 50.1086 14.5808 50.621 11.688C51.151 8.694 52.9767 7.63451 55.8153 7.83093C58.4655 8.0214 59.6492 9.77731 59.9614 12.2772C60.1322 13.7117 60.2146 15.1641 60.1793 16.6164V16.6164ZM56.575 16.0688C56.575 15.051 56.5986 14.0272 56.5633 13.0094C56.5397 12.4201 56.4631 11.8249 56.3395 11.2416C56.1981 10.569 55.7741 10.2475 55.2441 10.2594C54.7258 10.2713 54.3607 10.5928 54.1722 11.2178C54.1074 11.4499 54.0368 11.688 54.0368 11.9201C54.0368 13.5153 54.025 15.1165 54.0132 16.7117C54.0014 18.1997 53.813 19.7592 54.2782 21.1818C54.4196 21.6163 54.7847 21.8544 55.2617 21.8544C55.727 21.8544 56.0332 21.6223 56.204 21.2056C56.3395 20.8842 56.4573 20.533 56.4573 20.1878C56.4985 18.8188 56.575 17.4438 56.575 16.0688ZM45.3795 13.0748C45.6917 11.5332 45.9861 10.0273 46.31 8.51544C46.7164 6.59287 47.1699 4.67029 47.5703 2.74177C47.6705 2.27154 47.8589 2.15845 48.3006 2.17036C49.2488 2.20607 50.2146 2.18226 51.2276 2.18226C50.8978 3.40842 50.5739 4.57506 50.2558 5.72384C49.2488 9.33089 48.2417 12.9499 47.2464 16.5688C47.1699 16.8486 47.1345 17.1521 47.1345 17.4497C47.1228 19.4259 47.1345 21.3961 47.1345 23.3722V24.0151H43.6775C43.6657 23.8365 43.6422 23.6579 43.6422 23.4793C43.6422 22.3603 43.5538 21.2354 43.654 20.1282C43.9072 17.4676 43.0709 15.0212 42.3937 12.5451C41.4985 9.27137 40.5915 5.98574 39.6964 2.71201C39.6493 2.55725 39.6316 2.39059 39.5845 2.20012H43.1122C43.8542 5.81312 44.6021 9.42613 45.3795 13.0748ZM113.018 17.2236H107.058C107.123 18.4319 107.146 19.5806 107.27 20.7175C107.358 21.5092 107.788 21.8484 108.465 21.8544C109.172 21.8663 109.584 21.5092 109.749 20.7235C109.802 20.4675 109.838 20.2116 109.861 19.9497C109.885 19.7175 109.897 19.4675 109.914 19.1342C110.921 19.1878 111.905 19.2473 112.877 19.289C113.442 20.9854 112.423 23.1639 110.709 23.8365C109.361 24.3722 107.977 24.3722 106.599 23.9615C105.58 23.6579 104.82 23.0032 104.478 21.9972C104.16 21.0568 103.86 20.0747 103.795 19.0926C103.619 16.67 103.554 14.2236 103.919 11.7951C103.984 11.3904 104.096 11.0035 104.219 10.6106C104.714 8.99162 105.792 7.99759 107.458 7.83093C108.365 7.74165 109.302 7.77736 110.197 7.93212C111.646 8.18806 112.417 9.24161 112.753 10.6225C112.906 11.2713 113.018 11.938 113.041 12.5987C113.047 14.1165 113.018 15.6224 113.018 17.2236ZM109.632 15.1343C109.632 13.9379 109.643 12.8129 109.62 11.682C109.62 11.4142 109.52 11.1344 109.42 10.8785C109.219 10.3785 108.801 10.2416 108.301 10.2416C107.8 10.2416 107.482 10.4975 107.358 10.9559C106.981 12.3308 107.105 13.7355 107.117 15.1462C108.018 15.1343 108.837 15.1343 109.632 15.1343V15.1343Z" fill="#AEAEC4"/>
<path d="M74.3606 5.09908H70.8564V2.2301H81.3158V5.08123H77.8352V24.0153H74.3664L74.3606 5.09908Z" fill="#AEAEC4"/>
</svg>
