<svg width="100" height="100" viewBox="0 0 100 100" fill="none" xmlns="http://www.w3.org/2000/svg">
<rect width="100" height="100" fill="#FF0000"/>
<path d="M51.3021 73.2679L37.4997 73.0126C33.0306 72.9238 28.5506 73.1014 24.1694 72.1803C17.5042 70.8042 17.032 64.0567 16.5379 58.3969C15.8571 50.4398 16.1207 42.3385 17.4054 34.448C18.1301 30.02 20.985 27.3787 25.3992 27.0902C40.2997 26.047 55.299 26.1691 70.1666 26.6574C71.7368 26.7018 73.318 26.9459 74.8662 27.2234C82.5087 28.5773 82.6953 36.2236 83.1894 42.6603C83.6836 49.1636 83.4749 55.7001 82.5306 62.159C81.773 67.5081 80.3235 71.9916 74.2074 72.4244C66.543 72.9904 59.0543 73.4454 51.368 73.3012C51.368 73.2679 51.3241 73.2679 51.3021 73.2679V73.2679ZM43.1875 59.7286C48.9633 56.3771 54.6292 53.0811 60.372 49.7518C54.5853 46.4002 48.9303 43.1042 43.1875 39.7749V59.7286Z" fill="white"/>
</svg>
